<svg width="1018" height="299" viewBox="0 0 1018 299" fill="none" xmlns="http://www.w3.org/2000/svg">
<path d="M60.0919 28.7438L65.0631 120.234L47.9009 121.166L45.8019 82.5359L26.5178 83.5837L28.6169 122.214L11.4547 123.147L6.4835 31.6567L23.6457 30.7242L25.7345 69.1675L45.0186 68.1196L42.9297 29.6764L60.0919 28.7438ZM166.379 77.2361C166.383 78.0704 166.409 78.9245 166.456 79.7982C166.544 81.4208 166.729 83.2885 167.011 85.4013C167.334 87.5119 167.828 89.6966 168.494 91.9555C169.157 94.1728 169.929 96.0921 170.809 97.7134C171.688 99.293 172.641 100.326 173.669 100.813L166.436 116.291C164.773 115.63 163.264 114.752 161.911 113.657C160.598 112.518 159.401 111.227 158.321 109.784C157.241 108.34 156.28 106.786 155.439 105.121C154.639 103.453 153.92 101.74 153.282 99.9802C151.048 102.647 148.533 105.12 145.736 107.401C142.939 109.681 139.877 111.704 136.551 113.47C133.265 115.193 129.732 116.595 125.952 117.677C122.215 118.798 118.27 119.534 114.116 119.884C113.576 119.914 113.055 119.942 112.556 119.969C109.061 120.159 105.587 119.951 102.132 119.346C98.6797 118.783 95.3735 117.836 92.2133 116.505C89.0925 115.131 86.2493 113.491 83.6838 111.586C81.1577 109.637 78.9773 107.523 77.1426 105.244C75.3079 102.965 73.864 100.582 72.8108 98.0934C71.7969 95.5614 71.2233 93.068 71.0899 90.6133C70.8683 86.5359 71.3464 83.0465 72.524 80.145C73.741 77.1997 75.3585 74.7124 77.3763 72.6833C79.4336 70.6103 81.7619 68.919 84.3613 67.6093C87.0024 66.2974 89.6373 65.2571 92.2662 64.4883C94.9366 63.7173 97.4508 63.1426 99.8087 62.7641C102.208 62.3833 104.195 62.0876 105.769 61.8769L106.64 61.767C109.166 61.4211 112.07 61.0964 115.35 60.793C118.669 60.4457 122.158 60.1518 125.817 59.9113C129.474 59.6291 133.195 59.3852 136.981 59.1795C140.809 58.9715 144.492 58.7922 148.031 58.6417C147.902 56.2702 146.958 53.8595 145.197 51.4098C143.434 48.9184 141.081 46.6887 138.136 44.7205C135.189 42.7108 131.723 41.1257 127.738 39.9652C123.792 38.7608 119.572 38.2808 115.079 38.5249C112.582 38.6605 110.016 39.0503 107.381 39.6943C104.787 40.336 102.147 41.2931 99.4623 42.5656C96.819 43.8359 94.1522 45.4413 91.4618 47.3818C88.7692 49.2807 86.1189 51.5737 83.5109 54.2608L71.9879 44.9348C74.8004 41.402 77.9301 38.3318 81.377 35.7243C84.8655 33.1145 88.461 30.937 92.1635 29.1919C95.9075 27.4446 99.6534 26.1144 103.401 25.2014C107.188 24.2445 110.808 23.6722 114.261 23.4846C120.419 23.15 125.946 23.4965 130.842 24.524C135.738 25.5515 140.054 27.0279 143.789 28.9531C147.563 30.8344 150.771 33.0386 153.412 35.5657C156.095 38.0906 158.301 40.683 160.031 43.3431C161.761 46.0031 163.05 48.6037 163.898 51.1448C164.745 53.6859 165.222 55.9341 165.328 57.8896C165.331 57.9312 165.29 57.9543 165.207 57.9588C165.165 57.961 165.146 57.983 165.148 58.0246L165.335 58.0144L166.379 77.2361ZM92.2739 98.0373C95.4603 100.618 98.9191 102.454 102.65 103.545C106.382 104.636 110.203 105.075 114.114 104.862C118.358 104.632 122.521 103.696 126.605 102.056C130.689 100.415 134.387 98.2111 137.7 95.4439C141.053 92.6329 143.858 89.3508 146.116 85.5978C148.372 81.8031 149.773 77.6377 150.319 73.1013C146.78 73.2519 143.076 73.4323 139.207 73.6425C135.379 73.8505 131.616 74.0967 127.918 74.3811C124.217 74.6239 120.706 74.8981 117.385 75.2038C114.063 75.5095 111.16 75.8342 108.675 76.1778L107.742 76.2911C103.56 76.8939 100.133 77.56 97.4601 78.2894C94.7874 79.0188 92.6865 79.9049 91.1575 80.9477C89.6285 81.9906 88.5904 83.2362 88.0432 84.6847C87.4937 86.0916 87.2721 87.7728 87.3784 89.7282C87.4643 91.3092 87.9409 92.7855 88.8083 94.1572C89.715 95.4849 90.8702 96.7783 92.2739 98.0373ZM291.513 65.9302C290.891 67.5496 290.314 69.2084 289.78 70.9065C289.288 72.6024 288.861 74.3365 288.498 76.1088C287.742 79.8636 287.438 83.0932 287.585 85.7976C287.68 87.545 288.145 89.5853 288.982 91.9183C289.818 94.2514 292.156 95.4388 295.998 95.4804L290.486 109.237C286.325 109.463 282.849 108.838 280.056 107.363C277.303 105.843 275.159 103.623 273.623 100.702C269.789 104.624 265.834 107.489 261.759 109.296C257.682 111.061 253.335 112.07 248.717 112.32C246.928 112.418 245.063 112.269 243.122 111.873C241.181 111.478 239.268 110.831 237.383 109.932C235.54 109.031 233.766 107.875 232.062 106.465C230.4 105.054 228.931 103.36 227.655 101.385C223.565 105.988 219.324 109.327 214.93 111.402C210.577 113.475 205.926 114.646 200.975 114.915C198.645 115.041 196.209 114.756 193.668 114.06C191.128 113.405 188.711 112.305 186.415 110.761C184.118 109.175 182.068 107.158 180.266 104.711C178.505 102.261 177.326 99.7587 176.728 97.204C176.13 94.6493 175.779 92.4151 175.675 90.5012C175.567 88.5042 175.652 85.8498 175.931 82.5381C176.25 79.1826 177.47 74.7557 179.591 69.2575C180.467 66.9566 181.42 64.5263 182.45 61.9667C183.477 59.3654 184.502 56.7226 185.524 54.0382C186.588 51.3515 187.633 48.6867 188.657 46.0439C189.68 43.3595 190.668 40.8021 191.621 38.3718C193.856 32.6588 196.111 26.9447 198.388 21.2294L216.112 20.2664L200.182 60.0017C197.486 66.4491 195.463 72.2341 194.114 77.3565C192.805 82.435 192.18 85.9115 192.24 87.786C192.298 89.6189 192.332 90.6394 192.344 90.8474C192.518 94.051 193.341 96.5308 194.813 98.2869C196.328 100.041 198.624 100.834 201.703 100.667C204.449 100.517 206.867 99.7183 208.958 98.2694C211.089 96.7766 212.913 95.0292 214.432 93.0272C215.951 91.0252 217.216 88.9743 218.229 86.8746C219.241 84.7749 220.042 82.9997 220.631 81.549L245.943 18.6455L263.916 17.6689L245.615 63.2916C243.537 68.8291 242.047 73.6671 241.145 77.8054C240.283 81.8999 239.929 85.3617 240.082 88.1909C240.1 88.5237 240.197 89.5408 240.373 91.2421C240.547 92.9018 241.406 94.5034 242.95 96.0469C244.492 97.5487 246.678 98.2228 249.507 98.0691C252.253 97.9199 254.672 97.1208 256.763 95.6719C258.852 94.1814 260.655 92.4351 262.174 90.4331C263.734 88.4288 265.021 86.3768 266.033 84.2772C267.046 82.1775 267.847 80.4022 268.435 78.9515L293.685 16.0514L311.346 15.0918L291.513 65.9302ZM373.817 11.6974L378.788 103.187L362.999 104.045L359.672 42.8232L335.289 105.551L319.375 106.416L314.404 14.9256L330.193 14.0677L333.52 75.2899L357.899 12.4997L373.817 11.6974Z" fill="#FCC956"/>
<path d="M327.077 147.255L326.598 161.121C330.42 157.876 334.164 155.108 337.829 152.816C341.535 150.526 345.143 148.67 348.652 147.249C352.203 145.829 355.636 144.822 358.95 144.228C362.266 143.592 365.443 143.326 368.483 143.431C372.98 143.586 377.14 144.46 380.963 146.051C384.785 147.642 388.129 149.8 390.995 152.526C393.861 155.251 396.21 158.459 398.042 162.15C399.876 165.798 401.052 169.779 401.57 174.091C401.924 177.105 402.156 180.052 402.265 182.933C402.417 185.773 402.496 188.319 402.502 190.57C402.516 192.572 402.492 194.489 402.428 196.321L400.869 241.482L382.88 240.861L384.64 189.891C384.851 183.77 384.528 178.631 383.671 174.474C382.856 170.318 381.637 166.961 380.016 164.404C378.438 161.806 376.522 159.947 374.268 158.827C372.057 157.667 369.639 157.042 367.016 156.951C364.267 156.856 361.377 157.257 358.344 158.152C355.355 159.008 352.396 160.157 349.47 161.598C346.545 162.998 343.718 164.568 340.99 166.309C338.303 168.05 335.89 169.718 333.75 171.312C331.652 172.907 329.914 174.348 328.536 175.634C327.159 176.879 326.316 177.746 326.007 178.236L323.915 238.825L306.988 238.241L310.149 146.67L327.077 147.255ZM506.974 207.686C506.903 208.517 506.853 209.37 506.823 210.244C506.767 211.868 506.785 213.745 506.878 215.875C507.013 218.006 507.312 220.225 507.774 222.534C508.238 224.802 508.837 226.782 509.57 228.475C510.305 230.126 511.163 231.24 512.144 231.816L503.567 246.591C501.968 245.785 500.544 244.777 499.293 243.567C498.086 242.316 497.008 240.924 496.061 239.39C495.113 237.857 494.294 236.223 493.603 234.49C492.954 232.758 492.39 230.988 491.91 229.179C489.449 231.637 486.724 233.877 483.736 235.9C480.748 237.924 477.519 239.667 474.05 241.132C470.624 242.556 466.98 243.639 463.119 244.382C459.298 245.167 455.303 245.55 451.134 245.531C450.593 245.513 450.072 245.495 449.573 245.477C446.075 245.357 442.632 244.842 439.245 243.933C435.856 243.065 432.647 241.829 429.617 240.223C426.631 238.577 423.944 236.692 421.558 234.567C419.214 232.401 417.23 230.102 415.605 227.67C413.979 225.237 412.752 222.735 411.924 220.163C411.139 217.551 410.788 215.017 410.873 212.56C411.014 208.479 411.8 205.046 413.23 202.26C414.703 199.434 416.535 197.1 418.725 195.258C420.958 193.376 423.427 191.897 426.132 190.823C428.879 189.751 431.596 188.948 434.283 188.416C437.011 187.885 439.566 187.535 441.948 187.367C444.372 187.201 446.378 187.082 447.964 187.012L448.841 186.98C451.388 186.859 454.309 186.793 457.603 186.782C460.94 186.73 464.441 186.747 468.107 186.832C471.775 186.875 475.503 186.962 479.293 187.093C483.124 187.225 486.808 187.373 490.346 187.537C490.428 185.164 489.701 182.679 488.165 180.083C486.63 177.445 484.483 175.015 481.725 172.794C478.968 170.53 475.656 168.644 471.789 167.135C467.965 165.585 463.805 164.733 459.308 164.578C456.809 164.491 454.219 164.652 451.536 165.06C448.896 165.469 446.182 166.188 443.395 167.218C440.649 168.248 437.85 169.611 434.998 171.305C432.148 172.958 429.305 175.007 426.469 177.452L415.818 167.141C418.933 163.872 422.323 161.091 425.987 158.799C429.693 156.509 433.468 154.659 437.31 153.249C441.195 151.841 445.044 150.848 448.858 150.271C452.714 149.654 456.371 149.405 459.827 149.524C465.99 149.737 471.465 150.572 476.251 152.03C481.037 153.487 485.204 155.341 488.754 157.589C492.346 159.798 495.346 162.278 497.752 165.029C500.201 167.782 502.168 170.56 503.656 173.363C505.143 176.166 506.196 178.871 506.815 181.477C507.434 184.083 507.71 186.365 507.642 188.322C507.641 188.364 507.598 188.383 507.515 188.38C507.473 188.379 507.452 188.399 507.45 188.441L507.638 188.447L506.974 207.686ZM431.315 221.833C434.26 224.687 437.543 226.822 441.163 228.239C444.783 229.657 448.55 230.433 452.464 230.568C456.711 230.715 460.942 230.152 465.155 228.88C469.368 227.608 473.247 225.741 476.792 223.278C480.381 220.776 483.466 217.755 486.048 214.217C488.632 210.638 490.396 206.613 491.343 202.143C487.805 201.979 484.099 201.83 480.227 201.697C476.396 201.564 472.626 201.476 468.917 201.431C465.209 201.345 461.687 201.307 458.352 201.317C455.016 201.326 452.095 201.392 449.59 201.514L448.651 201.544C444.432 201.774 440.959 202.134 438.232 202.623C435.505 203.113 433.334 203.809 431.719 204.712C430.103 205.615 428.959 206.764 428.285 208.158C427.613 209.511 427.243 211.166 427.176 213.123C427.121 214.705 427.465 216.218 428.207 217.661C428.993 219.064 430.029 220.455 431.315 221.833ZM602.692 208.426C598.999 211.551 594.646 213.86 589.633 215.355C584.663 216.809 579.201 217.434 573.246 217.228C568.624 217.068 564.411 216.527 560.607 215.603C556.805 214.638 553.367 213.394 550.292 211.87C547.218 210.347 544.484 208.626 542.091 206.709C539.698 204.75 537.58 202.718 535.735 200.611L534.165 246.084L517.112 245.495L520.276 153.862L537.328 154.451L536.899 166.881C536.998 167.635 537.13 168.64 537.295 169.897C537.502 171.155 537.787 172.561 538.15 174.116C538.557 175.631 539.063 177.275 539.669 179.047C540.318 180.778 541.112 182.536 542.051 184.319C548.272 196.124 558.837 202.284 573.744 202.799C577.909 202.943 581.653 202.551 584.979 201.624C588.305 200.696 591.126 199.272 593.444 197.351C595.289 195.83 596.705 194.065 597.692 192.056C598.721 190.007 599.276 187.838 599.355 185.547C599.425 183.507 599.079 181.473 598.315 179.445C597.593 177.419 596.405 175.586 594.753 173.944C593.143 172.263 591.043 170.898 588.453 169.849C585.905 168.761 582.862 168.156 579.322 168.033C573.368 167.828 568.102 168.792 563.526 170.927C558.951 173.021 554.916 176.363 551.422 180.953L539.906 172.176C544.797 165.757 550.611 160.997 557.347 157.894C564.084 154.75 571.575 153.32 579.82 153.604C585.026 153.784 589.766 154.74 594.043 156.472C598.36 158.205 602.089 160.69 605.229 163.925C608.127 166.943 610.302 170.354 611.755 174.156C613.251 177.918 613.928 181.881 613.784 186.046C613.631 190.46 612.614 194.573 610.731 198.385C608.849 202.197 606.169 205.545 602.692 208.426ZM665.625 158.943L665.127 173.372L649.136 172.82L646.473 249.962L630.045 249.394L632.708 172.253L616.78 171.703L617.279 157.274L665.625 158.943ZM727.088 161.065L723.927 252.636L706.749 252.043L708.084 213.378L688.783 212.712L687.448 251.376L670.271 250.783L673.433 159.213L690.61 159.806L689.281 198.283L708.582 198.949L709.911 160.472L727.088 161.065ZM754.117 177.008L753.317 200.181L774.179 200.902L773.659 215.955L752.797 215.235L751.997 238.408L777.294 239.282L776.772 254.398L735.547 252.975L738.708 161.404L779.936 162.765L779.414 177.881L754.117 177.008ZM871.907 217.721C868.214 220.846 863.861 223.155 858.848 224.65C853.878 226.104 848.416 226.728 842.461 226.523C837.839 226.363 833.626 225.822 829.822 224.898C826.02 223.933 822.581 222.689 819.507 221.165C816.433 219.642 813.699 217.921 811.305 216.004C808.913 214.045 806.794 212.013 804.949 209.906L803.379 255.379L786.327 254.79L789.491 163.157L806.543 163.746L806.114 176.176C806.213 176.93 806.345 177.935 806.51 179.192C806.717 180.45 807.002 181.856 807.365 183.411C807.771 184.926 808.277 186.57 808.883 188.342C809.532 190.073 810.326 191.831 811.265 193.614C817.487 205.419 828.051 211.579 842.959 212.094C847.123 212.238 850.868 211.846 854.194 210.918C857.519 209.991 860.341 208.567 862.659 206.645C864.504 205.125 865.92 203.36 866.906 201.351C867.936 199.302 868.49 197.133 868.569 194.842C868.64 192.802 868.293 190.768 867.529 188.74C866.807 186.714 865.62 184.881 863.967 183.239C862.358 181.558 860.258 180.193 857.667 179.144C855.12 178.056 852.076 177.45 848.537 177.328C842.582 177.123 837.317 178.087 832.74 180.222C828.165 182.316 824.131 185.658 820.637 190.248L809.12 181.471C814.012 175.052 819.825 170.292 826.561 167.189C833.299 164.045 840.79 162.615 849.035 162.899C854.24 163.079 858.981 164.035 863.257 165.767C867.575 167.5 871.304 169.984 874.444 173.22C877.342 176.238 879.517 179.649 880.97 183.451C882.466 187.213 883.142 191.176 882.998 195.341C882.846 199.755 881.828 203.868 879.946 207.68C878.063 211.492 875.384 214.839 871.907 217.721ZM972.873 209.575C976.101 212.688 978.523 216.212 980.138 220.145C981.795 224.079 982.547 228.254 982.395 232.668C982.251 236.832 981.302 240.76 979.549 244.451C977.838 248.103 975.434 251.334 972.335 254.146C968.979 257.157 965.088 259.378 960.661 260.809C956.275 262.242 951.48 262.869 946.275 262.689C938.03 262.404 930.654 260.482 924.148 256.922C917.643 253.321 912.173 248.15 907.736 241.409L919.768 233.445C922.937 238.265 926.73 241.898 931.149 244.344C935.61 246.749 940.818 248.055 946.773 248.26C950.312 248.382 953.39 247.988 956.007 247.078C958.665 246.169 960.854 244.952 962.574 243.428C964.336 241.904 965.647 240.157 966.507 238.185C967.409 236.215 967.895 234.21 967.966 232.169C968.045 229.879 967.641 227.697 966.753 225.624C965.867 223.508 964.577 221.63 962.883 219.987C960.703 217.91 957.987 216.295 954.733 215.14C951.479 213.985 947.77 213.336 943.606 213.193C928.657 212.676 917.693 218.072 910.715 229.38C909.656 231.094 908.742 232.814 907.973 234.538C907.248 236.223 906.63 237.827 906.119 239.352C905.649 240.878 905.268 242.262 904.975 243.503C904.682 244.743 904.481 245.737 904.371 246.484L903.942 258.914L886.89 258.325L890.054 166.692L907.106 167.281L905.536 212.754C907.523 210.738 909.777 208.856 912.297 207.109C914.819 205.32 917.665 203.792 920.835 202.525C924.008 201.217 927.523 200.213 931.383 199.513C935.243 198.812 939.484 198.542 944.106 198.701C950.061 198.907 955.467 199.927 960.323 201.763C965.179 203.598 969.363 206.202 972.873 209.575ZM1009.92 170.83L1006.76 262.463L989.704 261.875L992.867 170.242L1009.92 170.83Z" fill="#A855F7"/>
</svg>
