<svg width="873" height="283" viewBox="0 0 873 283" fill="none" xmlns="http://www.w3.org/2000/svg">
<path d="M27.4827 81.103L29.2465 94.8654C32.4957 91.0464 35.7438 87.7106 38.9909 84.858C42.2793 82.0001 45.5406 79.5868 48.7749 77.618C52.0505 75.6439 55.2758 74.0964 58.4507 72.9753C61.6203 71.813 64.7137 71.0385 67.7306 70.6518C72.1941 70.0798 76.4404 70.2707 80.4693 71.2246C84.4983 72.1785 88.1467 73.7693 91.4148 75.9969C94.6828 78.2246 97.5184 81.0117 99.9217 84.3584C102.32 87.6637 104.122 91.4024 105.329 95.5745C106.165 98.4919 106.869 101.363 107.441 104.188C108.049 106.967 108.538 109.467 108.906 111.688C109.243 113.661 109.528 115.557 109.761 117.375L115.505 162.196L97.6515 164.484L91.1683 113.898C90.3897 107.823 89.2423 102.803 87.726 98.8387C86.2511 94.869 84.5075 91.7528 82.4952 89.4903C80.5189 87.1811 78.3281 85.6556 75.9226 84.9137C73.5531 84.1251 71.0665 83.8977 68.4628 84.2314C65.7351 84.581 62.947 85.4424 60.0985 86.8157C57.286 88.1423 54.5519 89.7529 51.8962 91.6475C49.2352 93.5009 46.6987 95.5062 44.2867 97.6637C41.9161 99.8158 39.8035 101.851 37.9489 103.769C36.1357 105.682 34.6525 107.384 33.4995 108.876C32.3412 110.327 31.6492 111.318 31.4234 111.851L39.1301 171.985L22.3301 174.138L10.6826 83.2561L27.4827 81.103ZM152.707 64.5501C156.054 64.121 159.46 64.1466 162.925 64.6268C166.389 65.107 169.764 66.0397 173.05 67.4249C176.377 68.8047 179.533 70.6477 182.517 72.9537C185.496 75.2185 188.173 77.9208 190.55 81.0608C192.927 84.2008 194.943 87.8071 196.6 91.8796C198.25 95.9108 199.388 100.365 200.013 105.242C200.649 110.201 200.679 114.86 200.103 119.218C199.528 123.577 198.486 127.575 196.978 131.213C195.47 134.851 193.56 138.141 191.249 141.084C188.937 144.027 186.343 146.565 183.466 148.698C180.63 150.825 177.597 152.558 174.365 153.897C171.129 155.194 167.837 156.057 164.489 156.486C161.142 156.915 157.718 156.912 154.218 156.479C150.754 155.999 147.36 155.089 144.038 153.751C140.758 152.407 137.628 150.603 134.649 148.338C131.67 146.073 128.993 143.371 126.616 140.231C124.239 137.091 122.223 133.484 120.566 129.412C118.91 125.339 117.764 120.824 117.129 115.864C116.499 110.946 116.474 106.328 117.055 102.011C117.636 97.6939 118.68 93.7164 120.188 90.0785C121.696 86.4406 123.606 83.1503 125.917 80.2076C128.223 77.2236 130.792 74.647 133.622 72.4779C136.494 70.3035 139.546 68.5472 142.777 67.2089C146.049 65.8654 149.359 64.9791 152.707 64.5501ZM162.853 143.715C166.112 143.255 169.119 142.135 171.874 140.354C174.623 138.531 176.915 136.095 178.75 133.045C180.622 129.949 181.936 126.273 182.693 122.017C183.486 117.715 183.535 112.856 182.841 107.442C182.142 101.987 180.869 97.2982 179.022 93.3762C177.211 89.4075 175.013 86.1817 172.426 83.6987C169.881 81.2104 167.051 79.4517 163.936 78.4226C160.817 77.3521 157.622 77.0055 154.352 77.3826C151.092 77.8424 148.067 78.9862 145.277 80.814C142.522 82.5953 140.207 85.0134 138.33 88.0685C136.453 91.1235 135.118 94.8022 134.325 99.1046C133.527 103.366 133.478 108.224 134.177 113.679C134.871 119.093 136.144 123.782 137.996 127.745C139.843 131.667 142.062 134.891 144.654 137.415C147.241 139.898 150.094 141.675 153.214 142.745C156.369 143.769 159.582 144.092 162.853 143.715ZM277.748 49.0288L289.396 139.91L274.765 141.785L267.917 88.3475L258.895 143.819L244.947 145.607L222.228 94.203L229.077 147.641L214.384 149.524L202.737 58.6423L217.483 56.6894L249.22 123.888L263.048 50.8497L277.748 49.0288ZM326.535 42.2721C329.883 41.8431 333.289 41.8687 336.753 42.3488C340.217 42.829 343.592 43.7617 346.878 45.1469C350.206 46.5268 353.361 48.3697 356.345 50.6758C359.324 52.9405 362.002 55.6429 364.378 58.7829C366.755 61.9229 368.772 65.5291 370.428 69.6016C372.079 73.6328 373.217 78.0868 373.842 82.9636C374.477 87.923 374.507 92.582 373.932 96.9405C373.356 101.299 372.314 105.297 370.806 108.935C369.298 112.573 367.388 115.863 365.077 118.806C362.766 121.749 360.171 124.287 357.294 126.42C354.458 128.547 351.425 130.28 348.194 131.619C344.957 132.916 341.665 133.779 338.318 134.208C334.97 134.637 331.546 134.634 328.046 134.201C324.582 133.721 321.189 132.811 317.867 131.473C314.586 130.129 311.456 128.325 308.477 126.06C305.499 123.795 302.821 121.093 300.444 117.953C298.067 114.813 296.051 111.207 294.395 107.134C292.739 103.062 291.593 98.5456 290.957 93.5861C290.327 88.668 290.302 84.0504 290.883 79.7332C291.464 75.4159 292.508 71.4384 294.016 67.8005C295.525 64.1626 297.434 60.8723 299.746 57.9296C302.052 54.9456 304.62 52.3691 307.451 50.2C310.322 48.0256 313.374 46.2693 316.605 44.931C319.877 43.5874 323.187 42.7011 326.535 42.2721ZM336.681 121.437C339.941 120.977 342.948 119.857 345.702 118.076C348.451 116.253 350.743 113.817 352.579 110.767C354.45 107.671 355.764 103.995 356.521 99.739C357.314 95.4366 357.363 90.5784 356.67 85.1644C355.97 79.709 354.697 75.0203 352.851 71.0982C351.04 67.1296 348.841 63.9037 346.254 61.4207C343.709 58.9324 340.879 57.1737 337.765 56.1446C334.645 55.0742 331.45 54.7275 328.18 55.1046C324.92 55.5644 321.895 56.7082 319.105 58.5361C316.351 60.3173 314.035 62.7355 312.158 65.7905C310.281 68.8456 308.946 72.5243 308.154 76.8266C307.355 81.0876 307.306 85.9458 308.005 91.4012C308.699 96.8153 309.972 101.504 311.824 105.467C313.671 109.389 315.891 112.613 318.482 115.137C321.069 117.62 323.922 119.397 327.042 120.467C330.198 121.491 333.411 121.814 336.681 121.437ZM494.919 64.0436C493.456 69.0199 492.301 73.2847 491.455 76.8378C490.644 80.3443 490.061 83.3385 489.707 85.8203C489.348 88.2608 489.175 90.0262 489.189 91.1167C489.239 92.1605 489.298 92.951 489.367 93.4883C489.473 94.3149 489.661 95.1308 489.933 95.9362C490.245 96.7363 490.697 97.4765 491.288 98.1569C491.916 98.7906 492.587 99.4397 493.302 100.104C494.059 100.763 494.829 101.526 495.612 102.392C496.395 103.257 497.153 104.421 497.886 105.881C498.276 106.629 498.532 107.478 498.654 108.429C498.707 108.842 498.732 109.532 498.73 110.499C498.728 111.465 498.45 112.74 497.897 114.323C497.39 115.942 496.631 117.552 495.617 119.152C494.604 120.752 493.343 122.216 491.832 123.544C490.328 124.913 488.584 126.06 486.603 126.986C484.626 127.954 482.44 128.591 480.042 128.898C478.761 129.063 477.402 129.111 475.965 129.043C474.575 129.011 473.125 128.84 471.615 128.529L475.774 114.764C476.942 115.034 478.085 115.098 479.201 114.955C480.812 114.748 482.064 114.189 482.955 113.276C483.846 112.364 484.355 111.417 484.481 110.434C484.026 110.157 483.539 109.799 483.021 109.361C482.544 108.918 482.082 108.431 481.636 107.9C481.185 107.328 480.775 106.751 480.406 106.168C480.078 105.58 479.842 105.043 479.695 104.558C475.908 109.748 471.847 113.629 467.514 116.2C463.176 118.731 458.465 120.322 453.381 120.973C451.604 121.201 449.733 121.189 447.769 120.936C445.804 120.684 443.849 120.179 441.903 119.42C439.958 118.661 438.084 117.641 436.281 116.36C434.52 115.073 432.931 113.491 431.514 111.615C427.813 116.5 423.848 120.137 419.617 122.528C415.387 124.918 410.813 126.429 405.895 127.059C403.58 127.356 401.13 127.25 398.545 126.741C395.964 126.274 393.473 125.354 391.071 123.981C388.704 122.562 386.533 120.698 384.557 118.389C382.622 116.074 381.263 113.665 380.48 111.161C379.697 108.657 379.184 106.454 378.94 104.553C378.686 102.569 378.577 99.9158 378.613 96.5926C378.685 93.2228 379.578 88.7185 381.292 83.0799C381.998 80.7211 382.75 78.2303 383.548 75.6075C384.382 72.9382 385.211 70.2275 386.034 67.4755C386.899 64.7182 387.746 61.9842 388.575 59.2735C389.439 56.5162 390.258 53.8908 391.031 51.3974C392.801 45.5415 394.612 39.6804 396.465 33.814L414.133 31.5496L401.089 72.3513C398.871 78.9786 397.277 84.8959 396.306 90.1032C395.372 95.264 395.003 98.7768 395.2 100.642C395.391 102.466 395.501 103.481 395.527 103.688C395.935 106.87 396.958 109.28 398.596 110.919C400.234 112.557 402.583 113.18 405.641 112.788C408.369 112.439 410.722 111.465 412.702 109.867C414.676 108.228 416.347 106.354 417.716 104.246C419.125 102.133 420.258 99.9929 421.114 97.8248C421.971 95.6567 422.639 93.8277 423.121 92.3377L443.703 27.7598L461.557 25.4716L446.702 72.3024C445.035 77.9771 443.906 82.9317 443.314 87.1662C442.759 91.3541 442.661 94.8533 443.022 97.6636C443.059 97.9529 443.204 98.9215 443.457 100.569C443.751 102.212 444.725 103.746 446.378 105.173C448.026 106.558 450.255 107.07 453.066 106.71C455.793 106.361 458.147 105.387 460.126 103.789C462.142 102.144 463.834 100.268 465.202 98.1605C466.57 96.0528 467.683 93.9149 468.539 91.7468C469.395 89.5787 470.064 87.7497 470.545 86.2598L491.19 21.6739L508.672 19.4334L494.919 64.0436ZM544.156 49.983C546.076 49.2328 547.966 48.7385 549.826 48.5002C553.339 48.05 556.681 48.3988 559.853 49.5466C563.06 50.6477 565.882 52.3444 568.318 54.6367C570.755 56.9289 572.618 59.5046 573.909 62.3637C575.235 65.1763 576.076 67.967 576.431 70.736C576.553 71.6866 576.641 73.3556 576.694 75.7431C576.79 78.1254 576.097 81.4067 574.616 85.5872C573.177 89.7623 570.746 93.8966 567.321 97.9901C564.066 101.432 560.616 104.016 556.973 105.744C553.376 107.507 549.512 108.653 545.379 109.183C543.064 109.479 540.614 109.373 538.029 108.865C535.448 108.397 532.957 107.477 530.555 106.105C528.147 104.691 525.955 102.83 523.979 100.52C522.044 98.2059 520.685 95.7966 519.902 93.2925C519.119 90.7884 518.606 88.5858 518.362 86.6847C518.108 84.7009 517.999 82.0474 518.035 78.7242C518.107 75.3543 519 70.8501 520.714 65.2115C521.42 62.8526 522.193 60.3592 523.032 57.7312C523.866 55.0618 524.695 52.3511 525.518 49.5991C526.383 46.8418 527.23 44.1078 528.059 41.3971C528.882 38.6451 529.68 36.0224 530.453 33.5289C532.264 27.6678 534.096 21.804 535.949 15.9376L553.555 13.6812L540.573 54.4749C538.356 61.1022 536.762 67.0195 535.791 72.2269C534.856 77.3876 534.487 80.9005 534.684 82.7655C534.876 84.5893 534.985 85.6045 535.011 85.8111C535.419 88.9934 536.421 91.4064 538.018 93.0501C539.657 94.6885 542.005 95.3117 545.063 94.9197C548.204 94.5172 550.898 93.4157 553.146 91.6154C555.389 89.7737 557.17 87.6131 558.49 85.1334C559.806 82.6125 560.597 80.2637 560.864 78.087C561.126 75.8691 561.164 74.0369 560.979 72.5904C560.852 71.5985 560.522 70.3385 559.99 68.8104C559.494 67.2356 558.345 65.8076 556.543 64.5264C554.776 63.1985 552.426 62.7226 549.491 63.0986C548.417 63.2364 547.234 63.5139 545.943 63.9314L544.156 49.983Z" fill="#FCC956"/>
<path d="M476.643 153.484C488.804 152.01 500.267 151.15 511.032 150.904C521.796 150.659 531.728 150.961 540.826 151.812C549.925 152.662 558.102 154.029 565.359 155.914C572.657 157.793 578.918 160.099 584.141 162.832C589.364 165.566 593.483 168.692 596.496 172.213C599.505 175.692 601.274 179.498 601.803 183.631C602.333 187.764 601.583 191.913 599.555 196.08C597.527 200.247 594.33 204.311 589.965 208.273C585.6 212.235 580.123 216.046 573.535 219.705C566.982 223.317 559.411 226.682 550.821 229.799C542.231 232.916 532.697 235.713 522.218 238.19C511.74 240.668 500.431 242.726 488.29 244.366L471.676 246.495L460.029 155.614L476.643 153.484ZM486.479 230.232C494.817 229.079 502.996 227.674 511.017 226.015C519.079 224.352 526.715 222.47 533.923 220.37C541.126 218.229 547.736 215.891 553.754 213.355C559.814 210.814 564.971 208.116 569.226 205.26C573.517 202.358 576.761 199.317 578.958 196.136C581.196 192.951 582.095 189.643 581.655 186.213C581.216 182.783 579.511 179.809 576.542 177.291C573.614 174.767 569.711 172.663 564.832 170.978C559.99 169.246 554.316 167.915 547.812 166.984C541.348 166.048 534.365 165.473 526.86 165.259C519.35 165.003 511.484 165.087 503.263 165.51C495.036 165.893 486.767 166.595 478.455 167.619L486.479 230.232ZM619.274 150.327L622.221 173.327L642.927 170.673L644.842 185.613L624.136 188.267L627.084 211.266L652.191 208.049L654.114 223.051L613.198 228.295L601.551 137.413L642.458 132.107L644.381 147.11L619.274 150.327ZM697.772 125.144L699.607 139.465L683.737 141.499L693.549 218.06L677.245 220.149L667.433 143.588L651.625 145.614L649.789 131.294L697.772 125.144ZM738.363 117.863C741.752 117.428 745.132 117.583 748.504 118.327C751.871 119.03 755.017 120.307 757.943 122.158C760.869 124.01 763.486 126.405 765.795 129.344C768.099 132.241 769.692 135.166 770.574 138.12C771.452 141.032 772.026 143.542 772.296 145.65C772.598 148.005 772.7 151.101 772.604 154.936C772.507 158.771 771.54 163.684 769.704 169.674L765.344 183.843C764.633 186.161 763.935 188.413 763.249 190.602C762.563 192.79 761.924 194.846 761.33 196.771C759.939 201.318 758.588 205.692 757.278 209.892L739.672 212.149L752.654 171.355C754.871 164.728 755.972 159.714 755.956 156.313C755.935 152.871 755.824 150.365 755.623 148.795C755.252 145.902 754.429 143.087 753.154 140.352C751.874 137.576 749.896 135.414 747.219 133.867C744.543 132.319 741.675 131.742 738.617 132.134C735.6 132.52 733.027 133.585 730.898 135.328C728.769 137.071 727.098 139.113 725.886 141.453C724.715 143.787 724.047 145.952 723.882 147.947C723.713 149.902 723.707 151.499 723.866 152.738C724.009 153.854 724.37 155.194 724.949 156.758C725.522 158.281 726.707 159.663 728.504 160.903C730.343 162.137 732.688 162.572 735.54 162.206C737.399 161.968 739.403 161.375 741.55 160.428L746.498 168.552L714.007 215.438L695.905 217.758L725.128 174.379C722.848 174.293 720.675 173.563 718.609 172.19C716.543 170.816 714.715 169.013 713.127 166.78C711.574 164.501 710.469 162.269 709.811 160.085C709.148 157.859 708.721 156.003 708.53 154.515C708.318 152.862 708.26 150.769 708.356 148.236C708.451 145.703 709.137 142.696 710.413 139.214C711.684 135.69 713.684 132.284 716.412 128.993C719.673 125.593 723.105 123.032 726.707 121.31C730.345 119.541 734.23 118.392 738.363 117.863ZM849.097 105.75L860.744 196.632L846.114 198.507L839.265 145.069L830.244 200.541L816.295 202.329L793.576 150.925L800.425 204.363L785.733 206.245L774.085 115.364L788.832 113.411L820.569 180.609L834.396 107.571L849.097 105.75Z" fill="#6238FC"/>
</svg>
