<svg width="873" height="283" viewBox="0 0 873 283" fill="none" xmlns="http://www.w3.org/2000/svg">
<path d="M27.0491 80.9682L28.8129 94.7306C32.0621 90.9116 35.3102 87.5758 38.5573 84.7232C41.8457 81.8654 45.107 79.452 48.3413 77.4832C51.6169 75.5092 54.8422 73.9616 58.0171 72.8406C61.1868 71.6782 64.2801 70.9037 67.2971 70.5171C71.7605 69.945 76.0068 70.1359 80.0357 71.0899C84.0647 72.0438 87.7131 73.6345 90.9812 75.8622C94.2492 78.0898 97.0848 80.8769 99.4881 84.2236C101.886 87.5289 103.688 91.2676 104.895 95.4397C105.731 98.3571 106.435 101.228 107.007 104.054C107.616 106.832 108.104 109.332 108.473 111.553C108.81 113.526 109.095 115.422 109.328 117.241L115.072 162.062L97.2179 164.35L90.7347 113.763C89.9561 107.688 88.8087 102.668 87.2924 98.7039C85.8175 94.7342 84.0739 91.6181 82.0616 89.3555C80.0854 87.0463 77.8945 85.5208 75.489 84.7789C73.1195 83.9904 70.6329 83.763 68.0292 84.0966C65.3016 84.4462 62.5134 85.3076 59.6649 86.6809C56.8524 88.0075 54.1183 89.6181 51.4626 91.5128C48.8016 93.3661 46.2651 95.3715 43.8531 97.5289C41.4825 99.6811 39.3699 101.716 37.5153 103.634C35.7021 105.547 34.2189 107.249 33.0659 108.741C31.9076 110.192 31.2156 111.184 30.9898 111.717L38.6966 171.85L21.8965 174.003L10.249 83.1213L27.0491 80.9682ZM152.273 64.4153C155.621 63.9863 159.027 64.0118 162.491 64.492C165.955 64.9722 169.33 65.9049 172.616 67.2901C175.944 68.67 179.099 70.5129 182.083 72.819C185.062 75.0837 187.74 77.786 190.117 80.9261C192.493 84.0661 194.51 87.6723 196.166 91.7448C197.817 95.776 198.955 100.23 199.58 105.107C200.215 110.066 200.245 114.725 199.67 119.084C199.094 123.442 198.052 127.44 196.544 131.078C195.036 134.716 193.126 138.007 190.815 140.949C188.504 143.892 185.909 146.43 183.032 148.563C180.196 150.691 177.163 152.424 173.932 153.762C170.695 155.059 167.403 155.922 164.056 156.351C160.708 156.78 157.284 156.778 153.784 156.344C150.32 155.864 146.927 154.954 143.605 153.616C140.324 152.272 137.194 150.468 134.215 148.203C131.237 145.938 128.559 143.236 126.182 140.096C123.805 136.956 121.789 133.35 120.133 129.277C118.477 125.205 117.331 120.689 116.695 115.729C116.065 110.811 116.04 106.194 116.621 101.876C117.202 97.5591 118.247 93.5816 119.755 89.9437C121.263 86.3058 123.173 83.0155 125.484 80.0728C127.79 77.0888 130.358 74.5122 133.189 72.3432C136.061 70.1688 139.112 68.4124 142.343 67.0742C145.616 65.7306 148.926 64.8443 152.273 64.4153ZM162.419 143.58C165.679 143.121 168.686 142 171.44 140.219C174.189 138.396 176.481 135.96 178.317 132.91C180.188 129.814 181.502 126.138 182.259 121.882C183.052 117.58 183.102 112.722 182.408 107.308C181.709 101.852 180.436 97.1635 178.589 93.2414C176.778 89.2727 174.579 86.0469 171.992 83.5639C169.447 81.0756 166.617 79.3169 163.503 78.2878C160.383 77.2174 157.188 76.8707 153.918 77.2478C150.658 77.7076 147.633 78.8514 144.843 80.6793C142.089 82.4605 139.773 84.8787 137.896 87.9337C136.019 90.9887 134.685 94.6674 133.892 98.9698C133.094 103.231 133.044 108.089 133.743 113.544C134.437 118.958 135.71 123.647 137.562 127.611C139.409 131.533 141.629 134.756 144.221 137.28C146.807 139.763 149.66 141.54 152.78 142.61C155.936 143.634 159.149 143.957 162.419 143.58ZM277.315 48.894L288.962 139.776L274.332 141.651L267.483 88.2128L258.462 143.685L244.513 145.472L221.794 94.0683L228.643 147.506L213.951 149.389L202.303 58.5075L217.05 56.5546L248.787 123.753L262.614 50.715L277.315 48.894ZM326.102 42.1373C329.449 41.7083 332.855 41.7339 336.319 42.2141C339.783 42.6943 343.158 43.627 346.445 45.0121C349.772 46.392 352.928 48.235 355.912 50.541C358.89 52.8057 361.568 55.5081 363.945 58.6481C366.322 61.7881 368.338 65.3944 369.994 69.4669C371.645 73.498 372.783 77.952 373.408 82.8288C374.044 87.7882 374.074 92.4472 373.498 96.8058C372.922 101.164 371.881 105.163 370.372 108.8C368.864 112.438 366.955 115.729 364.643 118.671C362.332 121.614 359.738 124.152 356.86 126.285C354.025 128.413 350.991 130.146 347.76 131.484C344.524 132.781 341.232 133.644 337.884 134.073C334.536 134.502 331.113 134.5 327.612 134.066C324.148 133.586 320.755 132.677 317.433 131.338C314.152 129.994 311.022 128.19 308.044 125.925C305.065 123.66 302.387 120.958 300.01 117.818C297.634 114.678 295.617 111.072 293.961 106.999C292.305 102.927 291.159 98.4108 290.523 93.4514C289.893 88.5332 289.868 83.9156 290.449 79.5984C291.03 75.2812 292.075 71.3036 293.583 67.6657C295.091 64.0278 297.001 60.7376 299.312 57.7949C301.618 54.8108 304.186 52.2343 307.017 50.0652C309.889 47.8908 312.94 46.1345 316.171 44.7962C319.444 43.4527 322.754 42.5664 326.102 42.1373ZM336.247 121.302C339.507 120.843 342.514 119.722 345.268 117.941C348.017 116.118 350.309 113.682 352.145 110.632C354.017 107.536 355.331 103.86 356.088 99.6042C356.88 95.3018 356.93 90.4436 356.236 85.0296C355.537 79.5742 354.264 74.8855 352.417 70.9635C350.606 66.9948 348.407 63.769 345.821 61.286C343.275 58.7977 340.446 57.039 337.331 56.0099C334.211 54.9394 331.016 54.5928 327.746 54.9699C324.486 55.4296 321.462 56.5735 318.671 58.4013C315.917 60.1826 313.601 62.6007 311.725 65.6557C309.848 68.7108 308.513 72.3895 307.72 76.6918C306.922 80.9529 306.872 85.8111 307.572 91.2665C308.265 96.6805 309.538 101.369 311.391 105.333C313.238 109.255 315.457 112.478 318.049 115.002C320.635 117.485 323.489 119.262 326.608 120.332C329.764 121.356 332.977 121.679 336.247 121.302ZM494.485 63.9089C493.023 68.8852 491.868 73.1499 491.021 76.703C490.21 80.2096 489.628 83.2037 489.274 85.6855C488.914 88.126 488.742 89.8915 488.755 90.9819C488.805 92.0257 488.864 92.8162 488.933 93.3535C489.039 94.1801 489.228 94.9961 489.499 95.8015C489.812 96.6015 490.263 97.3418 490.855 98.0221C491.482 98.6559 492.153 99.305 492.869 99.9694C493.625 100.629 494.395 101.391 495.178 102.257C495.961 103.123 496.719 104.286 497.453 105.746C497.843 106.494 498.098 107.344 498.22 108.294C498.273 108.707 498.299 109.397 498.297 110.364C498.294 111.33 498.017 112.605 497.463 114.188C496.957 115.807 496.197 117.417 495.184 119.017C494.171 120.617 492.909 122.081 491.399 123.409C489.894 124.778 488.151 125.926 486.169 126.852C484.193 127.819 482.006 128.456 479.609 128.764C478.328 128.928 476.969 128.976 475.532 128.908C474.141 128.876 472.691 128.705 471.181 128.394L475.34 114.629C476.509 114.899 477.651 114.963 478.767 114.82C480.379 114.613 481.63 114.054 482.522 113.142C483.413 112.229 483.922 111.282 484.048 110.3C483.592 110.022 483.105 109.664 482.587 109.227C482.11 108.784 481.649 108.297 481.203 107.766C480.751 107.193 480.341 106.616 479.972 106.033C479.645 105.445 479.408 104.908 479.262 104.423C475.474 109.613 471.414 113.494 467.081 116.066C462.742 118.596 458.031 120.187 452.948 120.839C451.171 121.066 449.3 121.054 447.335 120.802C445.37 120.549 443.415 120.044 441.47 119.285C439.524 118.526 437.65 117.506 435.847 116.225C434.086 114.938 432.497 113.357 431.081 111.48C427.38 116.365 423.414 120.003 419.184 122.393C414.953 124.784 410.379 126.294 405.461 126.924C403.147 127.221 400.697 127.115 398.111 126.606C395.531 126.139 393.039 125.219 390.637 123.846C388.271 122.427 386.1 120.563 384.123 118.254C382.188 115.94 380.829 113.53 380.046 111.026C379.263 108.522 378.75 106.319 378.506 104.418C378.252 102.435 378.143 99.7811 378.179 96.4578C378.251 93.088 379.144 88.5838 380.858 82.9452C381.564 80.5863 382.316 78.0955 383.114 75.4728C383.948 72.8034 384.777 70.0927 385.601 67.3407C386.465 64.5834 387.312 61.8494 388.141 59.1387C389.006 56.3814 389.825 53.7561 390.597 51.2626C392.367 45.4068 394.179 39.5456 396.031 33.6792L413.699 31.4149L400.655 72.2165C398.438 78.8438 396.844 84.7611 395.873 89.9685C394.938 95.1292 394.569 98.6421 394.766 100.507C394.958 102.331 395.067 103.346 395.093 103.553C395.501 106.735 396.524 109.145 398.163 110.784C399.801 112.422 402.149 113.045 405.207 112.653C407.935 112.304 410.289 111.33 412.268 109.732C414.243 108.093 415.914 106.219 417.282 104.112C418.691 101.999 419.824 99.8581 420.681 97.69C421.537 95.5219 422.206 93.6929 422.687 92.203L443.27 27.6251L461.124 25.3369L446.269 72.1677C444.602 77.8423 443.472 82.7969 442.881 87.0314C442.325 91.2194 442.228 94.7185 442.588 97.5288C442.625 97.8181 442.77 98.7867 443.023 100.435C443.318 102.077 444.292 103.612 445.945 105.038C447.593 106.423 449.822 106.936 452.632 106.575C455.36 106.226 457.713 105.252 459.693 103.654C461.709 102.01 463.4 100.133 464.769 98.0258C466.137 95.9181 467.249 93.7802 468.105 91.612C468.962 89.4439 469.63 87.6149 470.112 86.125L490.756 21.5391L508.238 19.2986L494.485 63.9089ZM543.722 49.8482C545.642 49.098 547.532 48.6038 549.392 48.3654C552.905 47.9152 556.247 48.264 559.419 49.4118C562.627 50.513 565.449 52.2097 567.885 54.5019C570.321 56.7942 572.184 59.3698 573.475 62.229C574.802 65.0415 575.642 67.8323 575.997 70.6013C576.119 71.5518 576.207 73.2209 576.261 75.6084C576.356 77.9906 575.663 81.2719 574.183 85.4524C572.744 89.6276 570.312 93.7619 566.888 97.8554C563.632 101.297 560.183 103.882 556.54 105.609C552.943 107.372 549.078 108.518 544.945 109.048C542.631 109.345 540.181 109.239 537.595 108.73C535.015 108.262 532.523 107.342 530.121 105.97C527.714 104.556 525.522 102.695 523.545 100.386C521.61 98.0712 520.252 95.6619 519.469 93.1577C518.686 90.6536 518.172 88.451 517.929 86.5499C517.674 84.5661 517.565 81.9126 517.601 78.5894C517.674 75.2196 518.567 70.7153 520.28 65.0767C520.986 62.7179 521.759 60.2244 522.598 57.5964C523.432 54.927 524.261 52.2163 525.085 49.4643C525.95 46.707 526.796 43.973 527.625 41.2623C528.449 38.5103 529.247 35.8876 530.019 33.3942C531.831 27.533 533.663 21.6692 535.515 15.8028L553.121 13.5464L540.139 54.3402C537.922 60.9674 536.328 66.8847 535.357 72.0921C534.422 77.2528 534.053 80.7657 534.25 82.6308C534.442 84.4545 534.551 85.4697 534.578 85.6764C534.985 88.8587 535.988 91.2717 537.585 92.9153C539.223 94.5537 541.571 95.1769 544.63 94.785C547.77 94.3824 550.465 93.281 552.713 91.4806C554.955 89.639 556.736 87.4783 558.057 84.9987C559.372 82.4777 560.163 80.1289 560.43 77.9523C560.692 75.7343 560.73 73.9021 560.545 72.4556C560.418 71.4637 560.088 70.2037 559.557 68.6756C559.061 67.1009 557.911 65.6729 556.109 64.3916C554.343 63.0637 551.992 62.5878 549.058 62.9639C547.983 63.1016 546.801 63.3792 545.51 63.7966L543.722 49.8482Z" fill="#FCC956"/>
<path d="M476.209 153.349C488.371 151.875 499.833 151.015 510.598 150.77C521.362 150.524 531.294 150.827 540.393 151.677C549.491 152.527 557.669 153.895 564.926 155.779C572.224 157.658 578.484 159.964 583.707 162.698C588.931 165.431 593.049 168.558 596.063 172.078C599.071 175.557 600.84 179.363 601.37 183.496C601.899 187.629 601.15 191.779 599.121 195.945C597.093 200.112 593.896 204.176 589.531 208.138C585.166 212.1 579.689 215.911 573.101 219.57C566.549 223.182 558.977 226.547 550.387 229.664C541.797 232.781 532.263 235.578 521.785 238.056C511.306 240.533 499.997 242.591 487.857 244.231L471.243 246.36L459.595 155.479L476.209 153.349ZM486.045 230.097C494.383 228.944 502.563 227.539 510.584 225.881C518.646 224.217 526.281 222.336 533.489 220.236C540.692 218.094 547.303 215.756 553.321 213.22C559.38 210.679 564.537 207.981 568.792 205.125C573.083 202.223 576.327 199.182 578.524 196.002C580.762 192.816 581.662 189.508 581.222 186.078C580.782 182.648 579.078 179.674 576.109 177.156C573.181 174.633 569.278 172.528 564.399 170.843C559.556 169.111 553.882 167.78 547.378 166.849C540.915 165.913 533.931 165.338 526.426 165.124C518.916 164.868 511.05 164.952 502.829 165.376C494.603 165.758 486.333 166.461 478.021 167.484L486.045 230.097ZM618.84 150.192L621.788 173.192L642.494 170.538L644.408 185.479L623.703 188.132L626.65 211.132L651.757 207.914L653.68 222.916L612.765 228.16L601.117 137.278L642.025 131.972L643.947 146.975L618.84 150.192ZM697.338 125.009L699.174 139.33L683.303 141.364L693.116 217.925L676.811 220.015L666.999 143.453L651.191 145.479L649.356 131.159L697.338 125.009ZM737.929 117.728C741.318 117.294 744.699 117.448 748.071 118.192C751.437 118.895 754.584 120.172 757.509 122.024C760.435 123.875 763.053 126.27 765.361 129.209C767.665 132.106 769.258 135.032 770.141 137.985C771.018 140.897 771.592 143.407 771.862 145.515C772.164 147.87 772.267 150.966 772.17 154.801C772.073 158.636 771.107 163.549 769.27 169.539L764.911 183.708C764.2 186.026 763.501 188.279 762.816 190.467C762.13 192.655 761.49 194.712 760.897 196.636C759.505 201.183 758.154 205.557 756.844 209.758L739.238 212.014L752.22 171.22C754.438 164.593 755.538 159.579 755.523 156.178C755.502 152.736 755.39 150.23 755.189 148.66C754.818 145.767 753.996 142.953 752.721 140.218C751.441 137.441 749.462 135.279 746.786 133.732C744.109 132.185 741.241 131.607 738.183 131.999C735.166 132.386 732.593 133.45 730.464 135.194C728.335 136.937 726.664 138.978 725.452 141.318C724.281 143.652 723.613 145.817 723.449 147.813C723.279 149.767 723.274 151.364 723.433 152.604C723.576 153.72 723.937 155.06 724.515 156.624C725.088 158.146 726.274 159.528 728.071 160.768C729.909 162.002 732.254 162.437 735.106 162.072C736.966 161.833 738.969 161.24 741.116 160.293L746.064 168.418L713.573 215.303L695.471 217.623L724.694 174.244C722.415 174.158 720.242 173.428 718.175 172.055C716.109 170.681 714.282 168.878 712.693 166.645C711.141 164.366 710.036 162.134 709.378 159.95C708.714 157.725 708.287 155.868 708.097 154.38C707.885 152.727 707.827 150.634 707.922 148.101C708.018 145.569 708.703 142.561 709.979 139.079C711.25 135.556 713.25 132.149 715.979 128.859C719.24 125.458 722.671 122.897 726.273 121.175C729.911 119.407 733.797 118.258 737.929 117.728ZM848.663 105.616L860.311 196.497L845.68 198.372L838.832 144.934L829.81 200.406L815.862 202.194L793.143 150.79L799.991 204.228L785.299 206.111L773.652 115.229L788.398 113.276L820.135 180.474L833.963 107.437L848.663 105.616Z" fill="#6238FC"/>
</svg>
