<svg width="751" height="316" viewBox="0 0 751 316" fill="none" xmlns="http://www.w3.org/2000/svg">
<path d="M173.056 153.882L172.223 167.732C176.127 164.586 179.94 161.914 183.662 159.717C187.426 157.523 191.08 155.76 194.625 154.429C198.211 153.1 201.668 152.181 204.996 151.672C208.327 151.121 211.511 150.936 214.547 151.119C219.039 151.389 223.175 152.369 226.955 154.057C230.736 155.746 234.024 157.989 236.819 160.787C239.614 163.585 241.881 166.852 243.618 170.588C245.357 174.282 246.431 178.291 246.839 182.615C247.116 185.637 247.272 188.59 247.308 191.472C247.387 194.315 247.401 196.862 247.349 199.113C247.312 201.115 247.238 203.03 247.128 204.86L244.414 249.966L226.447 248.885L229.51 197.977C229.878 191.863 229.686 186.718 228.936 182.54C228.227 178.365 227.095 174.978 225.54 172.38C224.029 169.743 222.161 167.836 219.936 166.658C217.755 165.442 215.354 164.755 212.734 164.597C209.989 164.432 207.089 164.758 204.035 165.576C201.024 166.355 198.038 167.428 195.075 168.794C192.115 170.119 189.249 171.616 186.477 173.286C183.747 174.958 181.292 176.564 179.112 178.102C176.974 179.643 175.2 181.039 173.789 182.29C172.38 183.499 171.515 184.345 171.194 184.826L167.553 245.342L150.646 244.325L156.149 152.865L173.056 153.882ZM340.335 215.665C336.563 218.694 332.152 220.892 327.103 222.257C322.097 223.584 316.621 224.069 310.673 223.711C306.057 223.433 301.859 222.784 298.08 221.763C294.304 220.701 290.898 219.37 287.864 217.768C284.83 216.166 282.141 214.376 279.797 212.399C277.456 210.379 275.39 208.293 273.599 206.14L270.866 251.558L253.835 250.533L259.341 159.011L276.373 160.036L275.626 172.451C275.706 173.207 275.812 174.215 275.945 175.476C276.119 176.738 276.368 178.152 276.692 179.716C277.059 181.24 277.523 182.896 278.083 184.683C278.688 186.431 279.437 188.208 280.33 190.015C286.247 201.975 296.651 208.404 311.54 209.299C315.699 209.55 319.453 209.254 322.801 208.412C326.15 207.57 329.007 206.218 331.373 204.357C333.256 202.884 334.717 201.156 335.755 199.173C336.836 197.151 337.446 194.996 337.584 192.709C337.706 190.671 337.412 188.628 336.7 186.582C336.03 184.538 334.89 182.675 333.28 180.991C331.714 179.269 329.649 177.851 327.086 176.737C324.568 175.583 321.541 174.9 318.006 174.688C312.058 174.33 306.77 175.16 302.14 177.177C297.513 179.153 293.394 182.39 289.784 186.89L278.496 177.82C283.55 171.529 289.483 166.919 296.296 163.99C303.112 161.019 310.638 159.781 318.873 160.276C324.072 160.589 328.786 161.666 333.017 163.507C337.289 165.35 340.953 167.929 344.009 171.243C346.829 174.335 348.916 177.8 350.271 181.638C351.671 185.437 352.245 189.417 351.995 193.576C351.73 197.984 350.607 202.07 348.628 205.833C346.648 209.596 343.884 212.873 340.335 215.665ZM398.117 166.923C401.486 167.125 404.827 167.785 408.141 168.903C411.455 170.021 414.597 171.567 417.567 173.54C420.579 175.516 423.335 177.915 425.837 180.737C428.341 183.518 430.468 186.672 432.218 190.2C433.967 193.728 435.276 197.647 436.144 201.957C437.014 206.225 437.301 210.813 437.006 215.721C436.706 220.712 435.867 225.295 434.488 229.47C433.11 233.645 431.341 237.378 429.181 240.671C427.021 243.964 424.531 246.841 421.712 249.301C418.892 251.761 415.87 253.771 412.646 255.33C409.463 256.891 406.159 258.028 402.736 258.741C399.314 259.411 395.919 259.645 392.55 259.443C389.181 259.24 385.818 258.599 382.46 257.521C379.146 256.403 375.982 254.877 372.968 252.942C369.995 251.01 367.256 248.654 364.752 245.874C362.248 243.093 360.121 239.939 358.372 236.411C356.622 232.883 355.313 228.964 354.446 224.654C353.578 220.344 353.294 215.694 353.594 210.703C353.892 205.753 354.729 201.212 356.105 197.079C357.48 192.946 359.248 189.233 361.408 185.94C363.568 182.647 366.058 179.77 368.877 177.31C371.7 174.809 374.703 172.756 377.889 171.153C381.116 169.552 384.441 168.396 387.865 167.683C391.331 166.973 394.748 166.72 398.117 166.923ZM393.323 246.591C396.611 246.747 399.775 246.207 402.813 244.97C405.853 243.692 408.56 241.726 410.932 239.072C413.348 236.379 415.324 233.013 416.861 228.973C418.443 224.894 419.397 220.13 419.725 214.682C420.055 209.191 419.679 204.348 418.596 200.15C417.556 195.913 415.998 192.334 413.919 189.412C411.883 186.493 409.43 184.237 406.563 182.646C403.697 181.012 400.623 180.076 397.34 179.837C394.051 179.681 390.866 180.24 387.784 181.516C384.746 182.752 382.02 184.696 379.607 187.348C377.193 189.999 375.196 193.365 373.614 197.444C372.036 201.481 371.081 206.245 370.751 211.735C370.423 217.183 370.799 222.027 371.88 226.266C372.963 230.464 374.543 234.045 376.619 237.008C378.697 239.93 381.169 242.207 384.034 243.841C386.944 245.435 390.04 246.352 393.323 246.591ZM461.694 186.276L460.301 209.421L481.139 210.675L480.234 225.711L459.397 224.457L458.004 247.602L483.271 249.123L482.363 264.22L441.187 261.743L446.69 170.283L487.869 172.698L486.961 187.796L461.694 186.276ZM538.574 212.44C542.133 212.947 545.254 214.157 547.935 216.072C550.661 217.947 553.004 220.28 554.965 223.069C556.97 225.819 558.664 228.885 560.047 232.266C561.432 235.605 562.564 238.992 563.443 242.426C565.546 250.483 566.738 259.467 567.018 269.376L550.236 268.367C550.039 260.549 549.271 253.532 547.934 247.315C547.382 244.694 546.661 242.105 545.771 239.547C544.923 236.991 543.851 234.693 542.555 232.653C541.258 230.614 539.73 228.956 537.97 227.682C536.254 226.368 534.252 225.642 531.965 225.505C529.386 225.349 527.062 225.815 524.993 226.901C522.927 227.945 521.107 229.401 519.534 231.268C517.96 233.136 516.579 235.286 515.389 237.719C514.241 240.154 513.256 242.641 512.435 245.18C510.487 251.198 509.154 258.089 508.437 265.852L492.778 264.91L498.28 173.45L515 174.456L512.102 222.619C512.149 222.538 512.219 222.417 512.312 222.256C512.405 222.094 512.541 221.915 512.72 221.717L546.568 176.355L565.284 177.481L538.574 212.44ZM617.128 180.601L616.261 195.012L600.29 194.051L595.654 271.099L579.246 270.112L583.882 193.064L567.973 192.107L568.84 177.695L617.128 180.601ZM704.75 225.945C707.897 229.14 710.228 232.724 711.742 236.697C713.298 240.672 713.943 244.865 713.678 249.273C713.428 253.432 712.379 257.335 710.532 260.981C708.728 264.587 706.242 267.756 703.072 270.487C699.64 273.411 695.693 275.532 691.231 276.85C686.811 278.17 682.001 278.674 676.802 278.361C668.567 277.866 661.243 275.755 654.83 272.03C648.42 268.263 643.083 262.954 638.82 256.102L651.052 248.448C654.096 253.348 657.796 257.077 662.15 259.635C666.548 262.154 671.721 263.592 677.669 263.95C681.204 264.162 684.291 263.847 686.93 263.004C689.61 262.164 691.83 261.003 693.589 259.523C695.389 258.045 696.744 256.332 697.655 254.383C698.607 252.436 699.144 250.444 699.266 248.406C699.404 246.119 699.056 243.927 698.222 241.832C697.39 239.695 696.149 237.783 694.497 236.098C692.371 233.966 689.697 232.282 686.474 231.044C683.25 229.807 679.559 229.063 675.4 228.813C660.469 227.914 649.371 233.028 642.106 244.153C641.003 245.84 640.045 247.535 639.233 249.24C638.465 250.905 637.806 252.493 637.256 254.005C636.747 255.518 636.331 256.892 636.006 258.124C635.681 259.357 635.455 260.345 635.327 261.089L634.58 273.504L617.548 272.479L623.055 180.957L640.086 181.982L637.354 227.4C639.392 225.435 641.693 223.612 644.257 221.93C646.824 220.206 649.708 218.751 652.91 217.566C656.114 216.34 659.655 215.426 663.531 214.824C667.408 214.223 671.654 214.061 676.271 214.339C682.219 214.697 687.596 215.855 692.404 217.814C697.212 219.773 701.327 222.483 704.75 225.945ZM742.776 188.161L737.269 279.683L720.237 278.658L725.744 187.136L742.776 188.161Z" fill="#A855F7"/>
<path d="M60.5253 52.0177L72.1727 142.899L55.1247 145.084L50.2067 106.711L31.0509 109.166L35.9689 147.539L18.9208 149.724L7.27334 58.8425L24.3214 56.6576L29.2156 94.8453L48.3714 92.3903L43.4772 54.2026L60.5253 52.0177ZM170.074 92.6086C170.139 93.4404 170.227 94.2903 170.338 95.1582C170.544 96.7701 170.865 98.6192 171.301 100.706C171.778 102.787 172.43 104.93 173.259 107.134C174.082 109.297 174.992 111.155 175.989 112.707C176.981 114.218 178.008 115.179 179.068 115.589L172.986 131.554C171.279 131.017 169.71 130.252 168.281 129.259C166.887 128.219 165.599 127.019 164.417 125.658C163.234 124.298 162.163 122.818 161.201 121.219C160.282 119.614 159.439 117.958 158.674 116.25C156.642 119.072 154.314 121.723 151.691 124.202C149.068 126.68 146.163 128.922 142.975 130.927C139.824 132.885 136.402 134.542 132.711 135.897C129.067 137.288 125.186 138.311 121.069 138.964C120.532 139.033 120.015 139.099 119.519 139.163C116.048 139.608 112.567 139.655 109.078 139.304C105.593 138.994 102.227 138.292 98.9776 137.196C95.7647 136.053 92.8092 134.626 90.1113 132.913C87.4494 131.154 85.1203 129.205 83.1239 127.066C81.1275 124.928 79.5131 122.656 78.2808 120.252C77.0845 117.801 76.3301 115.356 76.0176 112.917C75.4985 108.867 75.7201 105.352 76.6825 102.372C77.6809 99.3458 79.1121 96.747 80.9762 94.5757C82.8764 92.3579 85.0748 90.5008 87.5715 89.0046C90.1096 87.5031 92.6614 86.2729 95.227 85.314C97.8339 84.3498 100.299 83.5928 102.623 83.0429C104.989 82.4877 106.948 82.0475 108.503 81.7222L109.363 81.549C111.858 81.0192 114.729 80.4832 117.978 79.9407C121.264 79.3517 124.722 78.8034 128.354 78.296C131.98 77.7472 135.674 77.2319 139.434 76.7499C143.237 76.2626 146.897 75.8145 150.415 75.4056C150.113 73.0498 148.995 70.7147 147.06 68.4003C145.12 66.0445 142.609 63.9928 139.529 62.2452C136.443 60.4563 132.87 59.1288 128.811 58.2629C124.787 57.3503 120.543 57.18 116.08 57.7521C113.6 58.0699 111.07 58.6462 108.488 59.4812C105.948 60.3108 103.386 61.4584 100.801 62.9238C98.2576 64.384 95.7153 66.1801 93.174 68.3121C90.6275 70.4028 88.1519 72.8834 85.7473 75.754L73.5733 67.2955C76.1199 63.5665 79.0167 60.2757 82.2638 57.4231C85.5522 54.5653 88.9788 52.1308 92.5438 50.1196C96.15 48.1031 99.7886 46.5026 103.459 45.318C107.166 44.0868 110.735 43.2514 114.165 42.8118C120.282 42.0279 125.819 41.9693 130.778 42.6361C135.736 43.3028 140.148 44.4597 144.014 46.1066C147.915 47.707 151.276 49.6707 154.094 51.998C156.954 54.3199 159.344 56.7441 161.265 59.2705C163.185 61.7969 164.66 64.2963 165.691 66.7686C166.722 69.2409 167.362 71.4483 167.611 73.3908C167.616 73.4321 167.578 73.4581 167.495 73.4686C167.454 73.4739 167.436 73.4973 167.441 73.5386L167.627 73.5148L170.074 92.6086ZM97.6877 118.773C101.054 121.114 104.638 122.692 108.439 123.507C112.24 124.322 116.083 124.48 119.968 123.983C124.184 123.442 128.268 122.205 132.221 120.27C136.173 118.335 139.701 115.867 142.803 112.865C145.941 109.816 148.498 106.338 150.476 102.43C152.448 98.4802 153.541 94.2234 153.754 89.6592C150.236 90.0681 146.555 90.5189 142.711 91.0115C138.909 91.4988 135.174 92.0195 131.507 92.5735C127.834 93.0863 124.352 93.6165 121.062 94.1642C117.771 94.7119 114.899 95.248 112.446 95.7725L111.524 95.9536C107.398 96.8605 104.028 97.7755 101.416 98.6983C98.8039 99.6212 96.7735 100.659 95.3248 101.81C93.8761 102.962 92.9319 104.28 92.492 105.765C92.0469 107.208 91.9488 108.901 92.1978 110.844C92.399 112.414 92.9823 113.852 93.9477 115.156C94.949 116.414 96.1957 117.62 97.6877 118.773ZM294.046 72.1835C293.544 73.844 293.09 75.5406 292.682 77.2732C292.315 79.0005 292.016 80.7611 291.783 82.5552C291.304 86.3553 291.237 89.5985 291.581 92.2849C291.804 94.0207 292.417 96.0214 293.422 98.2871C294.426 100.553 296.845 101.566 300.679 101.327L296.188 115.45C292.055 115.979 288.542 115.61 285.649 114.343C282.793 113.029 280.492 110.971 278.746 108.17C275.209 112.362 271.474 115.508 267.543 117.609C263.606 119.667 259.344 120.991 254.756 121.579C252.979 121.806 251.108 121.794 249.143 121.542C247.179 121.29 245.224 120.784 243.278 120.025C241.374 119.261 239.52 118.238 237.718 116.957C235.957 115.671 234.368 114.089 232.951 112.212C229.209 117.102 225.223 120.743 220.992 123.133C216.803 125.519 212.25 127.026 207.332 127.657C205.017 127.953 202.567 127.847 199.982 127.338C197.401 126.871 194.91 125.951 192.508 124.579C190.1 123.165 187.908 121.303 185.932 118.994C183.997 116.68 182.638 114.271 181.855 111.766C181.072 109.262 180.559 107.06 180.315 105.159C180.061 103.175 179.952 100.521 179.988 97.1981C180.06 93.8282 180.953 89.324 182.667 83.6854C183.373 81.3265 184.145 78.8331 184.985 76.205C185.819 73.5357 186.648 70.825 187.471 68.073C188.336 65.3157 189.183 62.5817 190.012 59.871C190.835 57.119 191.633 54.4963 192.406 52.0028C194.217 46.1417 196.049 40.2779 197.902 34.4115L215.508 32.1551L202.526 72.9488C200.308 79.5761 198.714 85.4934 197.743 90.7007C196.809 95.8614 196.44 99.3743 196.637 101.239C196.828 103.063 196.937 104.078 196.964 104.285C197.372 107.467 198.374 109.88 199.971 111.524C201.609 113.162 203.958 113.786 207.016 113.394C209.744 113.044 212.097 112.07 214.077 110.472C216.092 108.828 217.784 106.952 219.153 104.844C220.521 102.736 221.633 100.598 222.489 98.4302C223.346 96.2621 224.014 94.4331 224.496 92.9432L245.14 28.3573L262.994 26.0691L248.077 72.9079C246.41 78.5825 245.278 83.5164 244.681 87.7097C244.121 91.8562 244.02 95.3347 244.381 98.1451C244.423 98.4757 244.594 99.4829 244.894 101.167C245.188 102.809 246.162 104.344 247.815 105.77C249.463 107.155 251.692 107.668 254.502 107.308C257.23 106.958 259.584 105.984 261.563 104.386C263.538 102.747 265.209 100.874 266.577 98.766C267.987 96.653 269.12 94.5124 269.976 92.3443C270.832 90.1762 271.501 88.3472 271.982 86.8573L292.565 22.2793L310.109 20.0309L294.046 72.1835ZM372.164 12.0779L383.811 102.96L368.127 104.97L360.333 44.1546L340.602 108.497L324.794 110.523L313.147 19.6416L328.831 17.6315L336.625 78.4466L356.348 14.0419L372.164 12.0779Z" fill="#FCC956"/>
</svg>
