<svg width="51" height="50" viewBox="0 0 51 50" fill="none" xmlns="http://www.w3.org/2000/svg">
<path d="M25.4346 0C11.6275 0 0.421631 11.2 0.421631 25C0.421631 38.8 11.6275 50 25.4346 50C39.2418 50 50.4477 38.8 50.4477 25C50.4477 11.2 39.2418 0 25.4346 0ZM37.0407 17C36.6655 20.95 35.0396 30.55 34.2142 34.975C33.864 36.85 33.1637 37.475 32.5133 37.55C31.0626 37.675 29.962 36.6 28.5613 35.675C26.3601 34.225 25.1095 33.325 22.9834 31.925C20.5071 30.3 22.1079 29.4 23.5337 27.95C23.9088 27.575 30.3122 21.75 30.4372 21.225C30.4546 21.1455 30.4523 21.0629 30.4305 20.9845C30.4087 20.9061 30.3681 20.8342 30.3122 20.775C30.1621 20.65 29.962 20.7 29.7869 20.725C29.5618 20.775 26.06 23.1 19.2314 27.7C18.2309 28.375 17.3304 28.725 16.53 28.7C15.6295 28.675 13.9287 28.2 12.653 27.775C11.0772 27.275 9.85154 27 9.95159 26.125C10.0016 25.675 10.6269 25.225 11.8026 24.75C19.1064 21.575 23.9589 19.475 26.3851 18.475C33.3388 15.575 34.7645 15.075 35.715 15.075C35.9151 15.075 36.3903 15.125 36.6905 15.375C36.9406 15.575 37.0157 15.85 37.0407 16.05C37.0157 16.2 37.0657 16.65 37.0407 17Z" fill="black"/>
</svg>
