<svg width="51" height="50" viewBox="0 0 51 50" fill="none" xmlns="http://www.w3.org/2000/svg">
<path d="M3.95727 3.5C0.455445 7.03333 0.455444 12.6833 0.455444 24V26C0.455444 37.3 0.455445 42.95 3.95727 46.5C7.49244 50 13.1454 50 24.4679 50H26.469C37.7749 50 43.4278 50 46.9796 46.5C50.4815 42.9667 50.4815 37.3167 50.4815 26V24C50.4815 12.7 50.4815 7.05 46.9796 3.5C43.4445 6.62274e-07 37.7915 0 26.469 0H24.4679C13.1621 0 7.50911 6.62274e-07 3.95727 3.5ZM8.89317 15.2167H14.6295C14.8129 24.75 19.0151 28.7833 22.3502 29.6167V15.2167H27.7363V23.4333C31.0213 23.0833 34.4898 19.3333 35.6571 15.2H41.0266C40.5884 17.3395 39.7137 19.3657 38.4571 21.1523C37.2004 22.9388 35.5888 24.4472 33.7228 25.5833C35.8056 26.6191 37.645 28.0845 39.1196 29.883C40.5941 31.6814 41.6704 33.772 42.2772 36.0167H36.3575C35.0901 32.0667 31.9218 29 27.7363 28.5833V36.0167H27.0693C15.6634 36.0167 9.15997 28.2167 8.89317 15.2167Z" fill="black"/>
</svg>
