<svg width="62" height="62" viewBox="0 0 62 62" fill="none" xmlns="http://www.w3.org/2000/svg">
<path d="M9.95618 9.91223C8.78085 11.1047 8.00868 12.7788 7.57818 15.9597C7.13743 19.2568 7.13401 23.6233 7.13401 29.9066V32.0932C7.13401 38.3662 7.13743 42.7293 7.57818 46.023C8.00526 49.2073 8.78085 50.8917 9.9596 52.0944C11.1554 53.2663 12.8296 54.0419 16.0071 54.469C19.3042 54.9097 23.6707 54.9166 29.9539 54.9166H32.1406C38.4136 54.9166 42.7767 54.9097 46.0738 54.469C49.2547 54.0419 50.9391 53.2663 52.1418 52.0876C53.3137 50.8952 54.0893 49.221 54.5163 46.0401C54.9605 42.743 54.9639 38.3765 54.9639 32.0932V29.9066C54.9639 23.6336 54.9571 19.2705 54.5198 15.9768C54.0893 12.7925 53.3137 11.1081 52.1349 9.9054C50.9425 8.73348 49.2684 7.9579 46.0874 7.53082C42.7904 7.09007 38.4238 7.08323 32.1406 7.08323H29.9539C23.6809 7.08323 19.3178 7.09007 16.0242 7.53082C12.8398 7.9579 11.1588 8.73348 9.95618 9.91223ZM29.9539 0.2499H32.1406C37.0777 0.2499 42.0899 0.102983 46.9929 0.758983C50.9425 1.28857 54.2874 2.41948 56.9593 5.06398L56.9866 5.09473C59.6277 7.7734 60.762 11.1183 61.2916 15.0714C61.9442 19.9675 61.7973 24.9763 61.7973 29.9066V32.0932C61.7973 37.0269 61.9476 42.0392 61.2882 46.9455C60.762 50.8951 59.6277 54.2401 56.9832 56.9119L56.9524 56.9392C54.2772 59.5803 50.9323 60.7112 46.9758 61.2442C42.0797 61.8968 37.0709 61.7499 32.1406 61.7499H29.9539C25.0203 61.7499 20.008 61.8968 15.1051 61.2408C11.152 60.7112 7.8071 59.5803 5.13868 56.9358L5.10793 56.9051C2.47026 54.2264 1.33593 50.8815 0.806346 46.9284C0.150346 42.0357 0.297263 37.0269 0.297263 32.0932V29.9066C0.297263 24.9729 0.150347 19.9607 0.809763 15.0543C1.33593 11.1047 2.47026 7.75973 5.11476 5.0879L5.1421 5.06057C7.82076 2.41948 11.1657 1.28857 15.1188 0.755566C20.0183 0.1064 25.0271 0.2499 29.9539 0.2499ZM10.6703 18.9664C10.9983 34.9564 18.9933 44.5504 33.0153 44.5504H33.8353V35.4074C38.9808 35.9199 42.8758 39.6919 44.4338 44.5504H51.7113C50.9652 41.7894 49.6422 39.2181 47.8294 37.006C46.0166 34.7939 43.7553 32.9914 41.1948 31.7174C43.4888 30.3199 45.4701 28.4646 47.0149 26.2672C48.5598 24.0698 49.6351 21.5775 50.1738 18.9459H43.5728C42.1378 24.0299 37.8738 28.6424 33.8353 29.0729V18.9664H27.2138V36.6784C23.1138 35.6534 17.9478 30.6924 17.7223 18.9664H10.6703Z" fill="#A855F7"/>
</svg>
